<?xml version="1.0" encoding="utf-8"?>
<!-- Generator: Adobe Illustrator 17.0.0, SVG Export Plug-In . SVG Version: 6.00 Build 0)  -->
<!DOCTYPE svg PUBLIC "-//W3C//DTD SVG 1.1//EN" "http://www.w3.org/Graphics/SVG/1.1/DTD/svg11.dtd">
<svg version="1.1" id="Layer_1" xmlns="http://www.w3.org/2000/svg" xmlns:xlink="http://www.w3.org/1999/xlink" x="0px" y="0px"
	 width="42px" height="42px" viewBox="0 0 42 42" enable-background="new 0 0 42 42" xml:space="preserve">
<g>
	<path fill="#FFFFFF" d="M21.82,3.924c-6.768,0-12.396,5.618-12.547,12.514l-0.008,0.261L6.86,22.406
		c-0.043,0.09-0.411,0.899-0.057,1.697c0.156,0.35,0.506,0.817,1.293,1.051l1.163,0.034v2.7c0,1.405,1.001,4.331,4.792,5.345
		l3.524,0.028v4.235h12.196V26.398c2.203-1.66,4.609-5.067,4.609-9.665C34.38,9.67,28.746,3.924,21.82,3.924z M28.491,25.295
		l-0.362,0.244v10.314h-8.91v-4.234h-4.844c-3.389-0.958-3.47-3.623-3.472-3.73v-4.343H8.466c-0.094-0.038-0.147-0.079-0.161-0.107
		c-0.03-0.065-0.003-0.232,0.052-0.357l2.54-6.025l0.018-0.573c0.131-6.018,5.023-10.915,10.905-10.915
		c6.02,0,10.917,5.009,10.917,11.167C32.737,20.939,30.45,23.975,28.491,25.295z"/>
	<circle fill="#FFFFFF" cx="13.953" cy="17.728" r="1.449"/>
	<path fill="#FFFFFF" d="M29.538,14.33c-0.184-2.902-2.507-5.225-5.409-5.41V7.939h-0.738v0.982
		c-2.902,0.184-5.225,2.508-5.409,5.41H17v0.738h0.983c0.184,2.901,2.507,5.225,5.409,5.409v0.983h0.738v-0.983
		c2.901-0.184,5.224-2.507,5.409-5.409h0.983V14.33H29.538z M23.392,19.72c-2.491-0.184-4.469-2.162-4.653-4.652h4.653V19.72z
		 M24.13,14.33V9.678c2.49,0.184,4.468,2.162,4.652,4.653H24.13z"/>
</g>
</svg>
